<mxfile host="app.diagrams.net" modified="2024-04-14T08:23:44.985Z" agent="Mozilla/5.0 (Windows NT 10.0; Win64; x64) AppleWebKit/537.36 (KHTML, like Gecko) Chrome/125.0.0.0 Safari/537.36 Edg/125.0.0.0" etag="DzIDA-M20lznhFcs2S-C" version="24.2.5" type="github">
  <diagram name="第 1 页" id="MhgxrpRq08BL4buWCvxP">
    <mxGraphModel dx="1282" dy="543" grid="1" gridSize="10" guides="1" tooltips="1" connect="1" arrows="1" fold="1" page="1" pageScale="1" pageWidth="827" pageHeight="1169" math="0" shadow="0">
      <root>
        <mxCell id="0" />
        <mxCell id="1" parent="0" />
        <mxCell id="AAiRIXYAXrdXZF7Z6wzW-2" value="&lt;font face=&quot;Helvetica&quot; style=&quot;font-size: 18px;&quot;&gt;大学规划&lt;/font&gt;" style="text;html=1;align=center;verticalAlign=middle;resizable=0;points=[];autosize=1;strokeColor=none;fillColor=none;" vertex="1" parent="1">
          <mxGeometry x="10" y="10" width="100" height="40" as="geometry" />
        </mxCell>
        <mxCell id="AAiRIXYAXrdXZF7Z6wzW-3" value="&lt;font style=&quot;font-size: 18px;&quot;&gt;目的：成为嵌入式Linux工程师&lt;/font&gt;" style="text;html=1;align=center;verticalAlign=middle;resizable=0;points=[];autosize=1;strokeColor=none;fillColor=none;" vertex="1" parent="1">
          <mxGeometry x="10" y="50" width="260" height="40" as="geometry" />
        </mxCell>
      </root>
    </mxGraphModel>
  </diagram>
</mxfile>
